
<svg xmlns="http://www.w3.org/2000/svg" version="1.1" xmlns:xlink="http://www.w3.org/1999/xlink" preserveAspectRatio="none" x="0px" y="0px" width="28px" height="28px" viewBox="0 0 28 28">
<defs>
<linearGradient id="Gradient_1" gradientUnits="userSpaceOnUse" x1="616.75" y1="119.95" x2="616.75" y2="332.65000000000003" spreadMethod="pad">
<stop  offset="0%" stop-color="#FFFFFF"/>

<stop  offset="18.431372549019606%" stop-color="#F8F8F9"/>

<stop  offset="45.88235294117647%" stop-color="#E4E6E8"/>

<stop  offset="79.2156862745098%" stop-color="#C3C8CD"/>

<stop  offset="100%" stop-color="#AAB1B9"/>
</linearGradient>

<linearGradient id="Gradient_2" gradientUnits="userSpaceOnUse" x1="518.05" y1="219.3" x2="715.45" y2="219.3" spreadMethod="pad">
<stop  offset="0%" stop-color="#FFFFFF"/>

<stop  offset="8.235294117647058%" stop-color="#F8F8F9"/>

<stop  offset="20.784313725490197%" stop-color="#E4E6E8"/>

<stop  offset="35.68627450980392%" stop-color="#C3C8CD"/>

<stop  offset="45.09803921568628%" stop-color="#AAB1B9"/>

<stop  offset="90.98039215686275%" stop-color="#FBFBFB"/>

<stop  offset="93.33333333333333%" stop-color="#F1F2F3"/>

<stop  offset="97.25490196078431%" stop-color="#D6D9DD"/>

<stop  offset="100%" stop-color="#BFC4CA"/>
</linearGradient>

<linearGradient id="Gradient_3" gradientUnits="userSpaceOnUse" x1="616.75" y1="128.6875" x2="616.75" y2="322.6125" spreadMethod="pad">
<stop  offset="0%" stop-color="#AAB1B9"/>

<stop  offset="20.784313725490197%" stop-color="#C3C8CD"/>

<stop  offset="54.11764705882353%" stop-color="#E4E6E8"/>

<stop  offset="81.56862745098039%" stop-color="#F8F8F9"/>

<stop  offset="100%" stop-color="#FFFFFF"/>
</linearGradient>

<linearGradient id="Gradient_4" gradientUnits="userSpaceOnUse" x1="530.3" y1="219.3" x2="703.2" y2="219.3" spreadMethod="pad">
<stop  offset="0%" stop-color="#32C3FF"/>

<stop  offset="20.784313725490197%" stop-color="#32C0FD"/>

<stop  offset="38.8235294117647%" stop-color="#32B5F5"/>

<stop  offset="55.294117647058826%" stop-color="#33A4E8"/>

<stop  offset="71.37254901960785%" stop-color="#338BD6"/>

<stop  offset="86.66666666666667%" stop-color="#336BBE"/>

<stop  offset="100%" stop-color="#3449A5"/>
</linearGradient>

<radialGradient id="Gradient_5" gradientUnits="userSpaceOnUse" cx="0" cy="0" r="94.38750000000005" fx="0" fy="0" gradientTransform="matrix( 0.9999999999999997, 0, 0, -0.9999999999999997, 615.25,218.45) " spreadMethod="pad">
<stop  offset="0%" stop-color="#32C3FF"/>

<stop  offset="22.352941176470587%" stop-color="#32C0FD"/>

<stop  offset="41.568627450980394%" stop-color="#32B5F5"/>

<stop  offset="59.6078431372549%" stop-color="#33A4E8"/>

<stop  offset="76.86274509803921%" stop-color="#338BD6"/>

<stop  offset="93.33333333333333%" stop-color="#346BBE"/>

<stop  offset="100%" stop-color="#345CB3"/>
</radialGradient>

<linearGradient id="Gradient_6" gradientUnits="userSpaceOnUse" x1="537.4875" y1="219.05" x2="695.3125" y2="219.05" spreadMethod="pad">
<stop  offset="0%" stop-color="#32C3FF"/>

<stop  offset="30.19607843137255%" stop-color="#3394DD"/>

<stop  offset="60.78431372549019%" stop-color="#336CBF"/>

<stop  offset="85.49019607843137%" stop-color="#3452AC"/>

<stop  offset="100%" stop-color="#3449A5"/>
</linearGradient>

<filter id="Filter_1" x="-20%" y="-20%" width="140%" height="140%" color-interpolation-filters="sRGB">
<feColorMatrix in="SourceGraphic" type="matrix" values="1 0 0 0 0 0 1 0 0 0 0 0 1 0 0 0 0 0 0.1 0" result="result1"/>
</filter>

<g id="Symbol_4_copy_0_Layer0_0_FILL">
<path fill="url(#Gradient_1)" stroke="none" d="
M 686.35 149.7
Q 672.75 136.05 655.05 128.6 636.75 120.85 616.75 120.85 596.7 120.85 578.4 128.6 560.75 136.05 547.15 149.7 533.5 163.3 526.05 180.95 518.3 199.25 518.3 219.3 518.3 239.3 526.05 257.6 533.5 275.3 547.15 288.9 560.75 302.55 578.4 310 596.7 317.75 616.75 317.75 636.75 317.75 655.05 310 672.75 302.55 686.35 288.9 700 275.3 707.45 257.6 715.2 239.3 715.2 219.3 715.2 199.25 707.45 180.95 700 163.3 686.35 149.7
M 680.2 155.85
Q 692.65 168.25 699.45 184.35 706.5 201.05 706.5 219.3 706.5 237.55 699.45 254.25 692.65 270.35 680.2 282.75 667.8 295.2 651.7 302 635 309.05 616.75 309.05 598.5 309.05 581.8 302 565.7 295.2 553.25 282.75 540.8 270.35 534 254.25 526.95 237.55 526.95 219.3 526.95 201.05 534 184.35 540.8 168.25 553.25 155.85 565.7 143.4 581.8 136.6 598.5 129.55 616.75 129.55 635 129.55 651.7 136.6 667.8 143.4 680.2 155.85 Z"/>
</g>

<g id="Symbol_4_copy_0_Layer0_1_FILL">
<path fill="url(#Gradient_1)" stroke="none" d="
M 680.2 155.85
Q 667.8 143.4 651.7 136.6 635 129.55 616.75 129.55 598.5 129.55 581.8 136.6 565.7 143.4 553.25 155.85 540.8 168.25 534 184.35 526.95 201.05 526.95 219.3 526.95 237.55 534 254.25 540.8 270.35 553.25 282.75 565.7 295.2 581.8 302 598.5 309.05 616.75 309.05 635 309.05 651.7 302 667.8 295.2 680.2 282.75 692.65 270.35 699.45 254.25 706.5 237.55 706.5 219.3 706.5 201.05 699.45 184.35 692.65 168.25 680.2 155.85 Z"/>
</g>

<g id="Symbol_4_copy_0_Layer0_2_FILL">
<path fill="url(#Gradient_3)" stroke="none" d="
M 680.2 155.85
Q 667.8 143.4 651.7 136.6 635 129.55 616.75 129.55 598.5 129.55 581.8 136.6 565.7 143.4 553.25 155.85 540.8 168.25 534 184.35 526.95 201.05 526.95 219.3 526.95 237.55 534 254.25 540.8 270.35 553.25 282.75 565.7 295.2 581.8 302 598.5 309.05 616.75 309.05 635 309.05 651.7 302 667.8 295.2 680.2 282.75 692.65 270.35 699.45 254.25 706.5 237.55 706.5 219.3 706.5 201.05 699.45 184.35 692.65 168.25 680.2 155.85 Z"/>
</g>

<g id="Symbol_4_copy_0_Layer0_3_MEMBER_0_MEMBER_0_MEMBER_0_FILL">
<path fill="url(#Gradient_4)" stroke="none" d="
M 677.9 158.15
Q 665.9 146.2 650.4 139.65 634.35 132.85 616.75 132.85 599.15 132.85 583.1 139.65 567.6 146.2 555.6 158.15 543.65 170.15 537.1 185.65 530.3 201.7 530.3 219.3 530.3 236.9 537.1 252.95 543.65 268.45 555.6 280.45 567.6 292.4 583.1 298.95 599.15 305.75 616.75 305.75 634.35 305.75 650.4 298.95 665.9 292.4 677.9 280.45 689.85 268.45 696.4 252.95 703.2 236.9 703.2 219.3 703.2 201.7 696.4 185.65 689.85 170.15 677.9 158.15 Z"/>
</g>

<g id="Symbol_4_copy_0_Layer0_3_MEMBER_0_MEMBER_0_MEMBER_1_FILL">
<path fill="url(#Gradient_5)" stroke="none" d="
M 672.45 275.05
Q 683.8 263.7 689.8 248.85 696.05 233.5 695.5 216.7 694.55 185.75 672.4 163.65 650.3 141.5 619.3 140.5 602.55 139.95 587.15 146.2 572.35 152.2 561 163.55 549.65 174.9 543.65 189.75 537.4 205.15 537.95 221.9 538.95 252.85 561.05 274.95 583.2 297.1 614.15 298.1 630.95 298.65 646.3 292.4 661.1 286.4 672.45 275.05 Z"/>
</g>

<g id="Symbol_4_copy_0_Layer0_4_FILL">
<path fill="url(#Gradient_6)" stroke="none" d="
M 689.15 188.35
Q 683.15 174.2 672.2 163.3 661.25 152.35 647.1 146.35 632.4 140.15 616.4 140.15 600.4 140.15 585.7 146.35 571.55 152.35 560.65 163.3 549.7 174.2 543.7 188.35 537.5 203.05 537.5 219.05 537.5 235.1 543.7 249.75 549.7 263.95 560.65 274.85 571.55 285.8 585.7 291.8 600.4 298 616.4 298 632.45 298 647.1 291.8 661.25 285.8 672.2 274.85 683.15 263.9 689.15 249.75 695.35 235.1 695.35 219.05 695.35 203.05 689.15 188.35
M 671.75 163.75
Q 682.6 174.6 688.55 188.6 694.7 203.15 694.7 219.05 694.7 234.95 688.55 249.5 682.6 263.55 671.75 274.4 660.9 285.25 646.85 291.2 632.3 297.35 616.4 297.35 600.5 297.35 585.95 291.2 571.95 285.25 561.1 274.4 550.25 263.55 544.3 249.5 538.15 234.95 538.15 219.05 538.15 203.15 544.3 188.6 550.25 174.6 561.1 163.75 571.95 152.9 585.95 146.95 600.5 140.8 616.4 140.8 632.3 140.8 646.85 146.95 660.9 152.9 671.75 163.75 Z"/>
</g>

<g id="flash0_ai_Objects__Path__0_Layer0_0_FILL">
<path fill="#000000" stroke="none" d="
M 147.25 36
Q 152.4 18.5 149.25 0 130.2 24.45 102.15 38.35 73.15 52.7 40.35 52.7 19.8 52.7 0 46.8 9.25 66.85 27.6 79.25 46.4 91.9 69.1 92.6 87.2 93.15 103.6 85.85 119.4 78.85 130.85 65.8 142.35 52.65 147.25 36 Z"/>
</g>

<path id="Symbol_4_copy_0_Layer0_0_1_STROKES" stroke="url(#Gradient_2)" stroke-width="0.5" stroke-linejoin="miter" stroke-linecap="butt" stroke-miterlimit="10" fill="none" d="
M 616.75 120.85
Q 596.7 120.85 578.4 128.6 560.75 136.05 547.15 149.7 533.5 163.3 526.05 180.95 518.3 199.25 518.3 219.3 518.3 239.3 526.05 257.6 533.5 275.3 547.15 288.9 560.75 302.55 578.4 310 596.7 317.75 616.75 317.75 636.75 317.75 655.05 310 672.75 302.55 686.35 288.9 700 275.3 707.45 257.6 715.2 239.3 715.2 219.3 715.2 199.25 707.45 180.95 700 163.3 686.35 149.7 672.75 136.05 655.05 128.6 636.75 120.85 616.75 120.85 Z
M 616.75 309.05
Q 598.5 309.05 581.8 302 565.7 295.2 553.25 282.75 540.8 270.35 534 254.25 526.95 237.55 526.95 219.3 526.95 201.05 534 184.35 540.8 168.25 553.25 155.85 565.7 143.4 581.8 136.6 598.5 129.55 616.75 129.55 635 129.55 651.7 136.6 667.8 143.4 680.2 155.85 692.65 168.25 699.45 184.35 706.5 201.05 706.5 219.3 706.5 237.55 699.45 254.25 692.65 270.35 680.2 282.75 667.8 295.2 651.7 302 635 309.05 616.75 309.05 Z"/>
</defs>

<g transform="matrix( 1, 0, 0, 1, 0.05,0.05) ">
<g transform="matrix( 0.1424407958984375, 0, 0, 0.1424407958984375, 14,14) ">
<g transform="matrix( 1, 0, 0, 1, -616.75,-219.3) ">
<use xlink:href="#Symbol_4_copy_0_Layer0_0_FILL"/>

<use xlink:href="#Symbol_4_copy_0_Layer0_0_1_STROKES"/>
</g>

<g transform="matrix( 1, 0, 0, 1, -616.75,-219.3) ">
<use xlink:href="#Symbol_4_copy_0_Layer0_1_FILL"/>
</g>

<g transform="matrix( 1, 0, 0, 1, -616.75,-219.3) ">
<use xlink:href="#Symbol_4_copy_0_Layer0_2_FILL"/>
</g>

<g transform="matrix( 1, 0, 0, 1, -616.75,-219.3) ">
<use xlink:href="#Symbol_4_copy_0_Layer0_3_MEMBER_0_MEMBER_0_MEMBER_0_FILL"/>
</g>

<g transform="matrix( 1, 0, 0, 1, -616.75,-219.3) ">
<use xlink:href="#Symbol_4_copy_0_Layer0_3_MEMBER_0_MEMBER_0_MEMBER_1_FILL"/>
</g>

<g transform="matrix( 1, 0, 0, 1, -616.75,-219.3) ">
<use xlink:href="#Symbol_4_copy_0_Layer0_4_FILL"/>
</g>

<g transform="matrix( 1, 0, 0, 1, -71.6,-13.8) ">
<g transform="matrix( 1, 0, 0, 1, 0,0) ">
<use filter="url(#Filter_1)" xlink:href="#flash0_ai_Objects__Path__0_Layer0_0_FILL"/>
</g>
</g>
</g>
</g>
</svg>
