<?xml version="1.0" encoding="UTF-8" standalone="no"?>
<svg
   xmlns:dc="http://purl.org/dc/elements/1.1/"
   xmlns:cc="http://creativecommons.org/ns#"
   xmlns:rdf="http://www.w3.org/1999/02/22-rdf-syntax-ns#"
   xmlns:svg="http://www.w3.org/2000/svg"
   xmlns="http://www.w3.org/2000/svg"
   xmlns:xlink="http://www.w3.org/1999/xlink"
   xmlns:sodipodi="http://sodipodi.sourceforge.net/DTD/sodipodi-0.dtd"
   xmlns:inkscape="http://www.inkscape.org/namespaces/inkscape"
   version="1.1"
   preserveAspectRatio="none"
   x="0px"
   y="0px"
   width="584"
   height="679"
   viewBox="0 0 584 679"
   id="svg2775"
   sodipodi:docname="restartButton.svg"
   inkscape:version="0.92.3 (2405546, 2018-03-11)">
  <metadata
     id="metadata2779">
    <rdf:RDF>
      <cc:Work
         rdf:about="">
        <dc:format>image/svg+xml</dc:format>
        <dc:type
           rdf:resource="http://purl.org/dc/dcmitype/StillImage" />
        <dc:title></dc:title>
      </cc:Work>
    </rdf:RDF>
  </metadata>
  <sodipodi:namedview
     pagecolor="#ffffff"
     bordercolor="#666666"
     borderopacity="1"
     objecttolerance="10"
     gridtolerance="10"
     guidetolerance="10"
     inkscape:pageopacity="0"
     inkscape:pageshadow="2"
     inkscape:window-width="1366"
     inkscape:window-height="705"
     id="namedview2777"
     showgrid="false"
     inkscape:zoom="0.55272727"
     inkscape:cx="275"
     inkscape:cy="200"
     inkscape:window-x="-8"
     inkscape:window-y="-8"
     inkscape:window-maximized="1"
     inkscape:current-layer="svg2775" />
  <defs
     id="defs2725">
    <linearGradient
       id="Gradient_1"
       gradientUnits="userSpaceOnUse"
       x1="-0.71249998"
       y1="-18.2125"
       x2="-0.6875"
       y2="55.412498"
       spreadMethod="pad">
      <stop
         offset="17.647058823529413%"
         stop-color="#000000"
         id="stop2601" />
      <stop
         offset="100%"
         stop-color="#FFFFFF"
         stop-opacity="0"
         id="stop2603" />
    </linearGradient>
    <linearGradient
       id="Gradient_2"
       gradientUnits="userSpaceOnUse"
       x1="616.75"
       y1="119.95"
       x2="616.75"
       y2="332.64999"
       spreadMethod="pad">
      <stop
         offset="0%"
         stop-color="#FFFFFF"
         id="stop2606" />
      <stop
         offset="18.431372549019606%"
         stop-color="#F8F8F9"
         id="stop2608" />
      <stop
         offset="45.88235294117647%"
         stop-color="#E4E6E8"
         id="stop2610" />
      <stop
         offset="79.2156862745098%"
         stop-color="#C3C8CD"
         id="stop2612" />
      <stop
         offset="100%"
         stop-color="#AAB1B9"
         id="stop2614" />
    </linearGradient>
    <linearGradient
       id="Gradient_3"
       gradientUnits="userSpaceOnUse"
       x1="518.04999"
       y1="219.3"
       x2="715.45001"
       y2="219.3"
       spreadMethod="pad">
      <stop
         offset="0%"
         stop-color="#FFFFFF"
         id="stop2617" />
      <stop
         offset="8.235294117647058%"
         stop-color="#F8F8F9"
         id="stop2619" />
      <stop
         offset="20.784313725490197%"
         stop-color="#E4E6E8"
         id="stop2621" />
      <stop
         offset="35.68627450980392%"
         stop-color="#C3C8CD"
         id="stop2623" />
      <stop
         offset="45.09803921568628%"
         stop-color="#AAB1B9"
         id="stop2625" />
      <stop
         offset="90.98039215686275%"
         stop-color="#FBFBFB"
         id="stop2627" />
      <stop
         offset="93.33333333333333%"
         stop-color="#F1F2F3"
         id="stop2629" />
      <stop
         offset="97.25490196078431%"
         stop-color="#D6D9DD"
         id="stop2631" />
      <stop
         offset="100%"
         stop-color="#BFC4CA"
         id="stop2633" />
    </linearGradient>
    <linearGradient
       id="Gradient_4"
       gradientUnits="userSpaceOnUse"
       x1="616.75"
       y1="128.6875"
       x2="616.75"
       y2="322.61249"
       spreadMethod="pad">
      <stop
         offset="0%"
         stop-color="#AAB1B9"
         id="stop2636" />
      <stop
         offset="20.784313725490197%"
         stop-color="#C3C8CD"
         id="stop2638" />
      <stop
         offset="54.11764705882353%"
         stop-color="#E4E6E8"
         id="stop2640" />
      <stop
         offset="81.56862745098039%"
         stop-color="#F8F8F9"
         id="stop2642" />
      <stop
         offset="100%"
         stop-color="#FFFFFF"
         id="stop2644" />
    </linearGradient>
    <linearGradient
       id="Gradient_5"
       gradientUnits="userSpaceOnUse"
       x1="530.29999"
       y1="219.3"
       x2="703.20001"
       y2="219.3"
       spreadMethod="pad">
      <stop
         offset="0%"
         stop-color="#32C3FF"
         id="stop2647" />
      <stop
         offset="20.784313725490197%"
         stop-color="#32C0FD"
         id="stop2649" />
      <stop
         offset="38.8235294117647%"
         stop-color="#32B5F5"
         id="stop2651" />
      <stop
         offset="55.294117647058826%"
         stop-color="#33A4E8"
         id="stop2653" />
      <stop
         offset="71.37254901960785%"
         stop-color="#338BD6"
         id="stop2655" />
      <stop
         offset="86.66666666666667%"
         stop-color="#336BBE"
         id="stop2657" />
      <stop
         offset="100%"
         stop-color="#3449A5"
         id="stop2659" />
    </linearGradient>
    <radialGradient
       id="Gradient_6"
       gradientUnits="userSpaceOnUse"
       cx="0"
       cy="0"
       r="94.387497"
       fx="0"
       fy="0"
       gradientTransform="matrix(1,0,0,-1,615.25,218.45)"
       spreadMethod="pad">
      <stop
         offset="0%"
         stop-color="#32C3FF"
         id="stop2662" />
      <stop
         offset="22.352941176470587%"
         stop-color="#32C0FD"
         id="stop2664" />
      <stop
         offset="41.568627450980394%"
         stop-color="#32B5F5"
         id="stop2666" />
      <stop
         offset="59.6078431372549%"
         stop-color="#33A4E8"
         id="stop2668" />
      <stop
         offset="76.86274509803921%"
         stop-color="#338BD6"
         id="stop2670" />
      <stop
         offset="93.33333333333333%"
         stop-color="#346BBE"
         id="stop2672" />
      <stop
         offset="100%"
         stop-color="#345CB3"
         id="stop2674" />
    </radialGradient>
    <linearGradient
       id="Gradient_7"
       gradientUnits="userSpaceOnUse"
       x1="537.48749"
       y1="219.05"
       x2="695.3125"
       y2="219.05"
       spreadMethod="pad">
      <stop
         offset="0%"
         stop-color="#32C3FF"
         id="stop2677" />
      <stop
         offset="30.19607843137255%"
         stop-color="#3394DD"
         id="stop2679" />
      <stop
         offset="60.78431372549019%"
         stop-color="#336CBF"
         id="stop2681" />
      <stop
         offset="85.49019607843137%"
         stop-color="#3452AC"
         id="stop2683" />
      <stop
         offset="100%"
         stop-color="#3449A5"
         id="stop2685" />
    </linearGradient>
    <filter
       id="Filter_1"
       x="-0.2"
       y="-0.2"
       width="1.4"
       height="1.4"
       style="color-interpolation-filters:sRGB">
      <feColorMatrix
         in="SourceGraphic"
         type="matrix"
         values="1 0 0 0 0 0 1 0 0 0 0 0 1 0 0 0 0 0 0.32 0"
         result="result1"
         id="feColorMatrix2688" />
    </filter>
    <filter
       id="Filter_2"
       x="-0.2"
       y="-0.2"
       width="1.4"
       height="1.4"
       style="color-interpolation-filters:sRGB">
      <feColorMatrix
         in="SourceGraphic"
         type="matrix"
         values="1 0 0 0 0 0 1 0 0 0 0 0 1 0 0 0 0 0 0.1 0"
         result="result1"
         id="feColorMatrix2691" />
    </filter>
    <filter
       id="Filter_3"
       x="-0.2"
       y="-0.2"
       width="1.4"
       height="1.4"
       style="color-interpolation-filters:sRGB">
      <feColorMatrix
         in="SourceGraphic"
         type="matrix"
         values="1 0 0 0 0 0 1 0 0 0 0 0 1 0 0 0 0 0 0.53 0"
         result="result1"
         id="feColorMatrix2694" />
    </filter>
    <g
       id="Symbol_8_copy_3_0_Layer0_0_FILL">
      <path
         d="m -35.7,-52.9 -0.55,29.9 q 12.2,13 25.05,26.65 25.75,27.3 29.1,30.7 3.35,3.4 11.6,3.2 4.15,-0.05 7.6,-0.85 l -0.25,-92.2 z"
         id="path2697"
         inkscape:connector-curvature="0"
         style="fill:url(#Gradient_1);stroke:none" />
    </g>
    <g
       id="Symbol_4_0_Layer0_0_FILL">
      <path
         d="m 686.35,149.7 q -13.6,-13.65 -31.3,-21.1 -18.3,-7.75 -38.3,-7.75 -20.05,0 -38.35,7.75 -17.65,7.45 -31.25,21.1 -13.65,13.6 -21.1,31.25 -7.75,18.3 -7.75,38.35 0,20 7.75,38.3 7.45,17.7 21.1,31.3 13.6,13.65 31.25,21.1 18.3,7.75 38.35,7.75 20,0 38.3,-7.75 17.7,-7.45 31.3,-21.1 13.65,-13.6 21.1,-31.3 7.75,-18.3 7.75,-38.3 0,-20.05 -7.75,-38.35 Q 700,163.3 686.35,149.7 m -6.15,6.15 q 12.45,12.4 19.25,28.5 7.05,16.7 7.05,34.95 0,18.25 -7.05,34.95 -6.8,16.1 -19.25,28.5 -12.4,12.45 -28.5,19.25 -16.7,7.05 -34.95,7.05 -18.25,0 -34.95,-7.05 -16.1,-6.8 -28.55,-19.25 -12.45,-12.4 -19.25,-28.5 -7.05,-16.7 -7.05,-34.95 0,-18.25 7.05,-34.95 6.8,-16.1 19.25,-28.5 12.45,-12.45 28.55,-19.25 16.7,-7.05 34.95,-7.05 18.25,0 34.95,7.05 16.1,6.8 28.5,19.25 z"
         id="path2700"
         inkscape:connector-curvature="0"
         style="fill:url(#Gradient_2);stroke:none" />
    </g>
    <g
       id="Symbol_4_0_Layer0_1_FILL">
      <path
         d="m 680.2,155.85 q -12.4,-12.45 -28.5,-19.25 -16.7,-7.05 -34.95,-7.05 -18.25,0 -34.95,7.05 -16.1,6.8 -28.55,19.25 -12.45,12.4 -19.25,28.5 -7.05,16.7 -7.05,34.95 0,18.25 7.05,34.95 6.8,16.1 19.25,28.5 12.45,12.45 28.55,19.25 16.7,7.05 34.95,7.05 18.25,0 34.95,-7.05 16.1,-6.8 28.5,-19.25 12.45,-12.4 19.25,-28.5 7.05,-16.7 7.05,-34.95 0,-18.25 -7.05,-34.95 -6.8,-16.1 -19.25,-28.5 z"
         id="path2703"
         inkscape:connector-curvature="0"
         style="fill:url(#Gradient_2);stroke:none" />
    </g>
    <g
       id="Symbol_4_0_Layer0_2_FILL">
      <path
         d="m 680.2,155.85 q -12.4,-12.45 -28.5,-19.25 -16.7,-7.05 -34.95,-7.05 -18.25,0 -34.95,7.05 -16.1,6.8 -28.55,19.25 -12.45,12.4 -19.25,28.5 -7.05,16.7 -7.05,34.95 0,18.25 7.05,34.95 6.8,16.1 19.25,28.5 12.45,12.45 28.55,19.25 16.7,7.05 34.95,7.05 18.25,0 34.95,-7.05 16.1,-6.8 28.5,-19.25 12.45,-12.4 19.25,-28.5 7.05,-16.7 7.05,-34.95 0,-18.25 -7.05,-34.95 -6.8,-16.1 -19.25,-28.5 z"
         id="path2706"
         inkscape:connector-curvature="0"
         style="fill:url(#Gradient_4);stroke:none" />
    </g>
    <g
       id="Symbol_4_0_Layer0_3_MEMBER_0_MEMBER_0_MEMBER_0_FILL">
      <path
         d="m 677.9,158.15 q -12,-11.95 -27.5,-18.5 -16.05,-6.8 -33.65,-6.8 -17.6,0 -33.65,6.8 -15.5,6.55 -27.5,18.5 -11.95,12 -18.5,27.5 -6.8,16.05 -6.8,33.65 0,17.6 6.8,33.65 6.55,15.5 18.5,27.5 12,11.95 27.5,18.5 16.05,6.8 33.65,6.8 17.6,0 33.65,-6.8 15.5,-6.55 27.5,-18.5 11.95,-12 18.5,-27.5 6.8,-16.05 6.8,-33.65 0,-17.6 -6.8,-33.65 -6.55,-15.5 -18.5,-27.5 z"
         id="path2709"
         inkscape:connector-curvature="0"
         style="fill:url(#Gradient_5);stroke:none" />
    </g>
    <g
       id="Symbol_4_0_Layer0_3_MEMBER_0_MEMBER_0_MEMBER_1_FILL">
      <path
         d="m 672.45,275.05 q 11.35,-11.35 17.35,-26.2 6.25,-15.35 5.7,-32.15 -0.95,-30.95 -23.1,-53.05 -22.1,-22.15 -53.1,-23.15 -16.75,-0.55 -32.15,5.7 -14.8,6 -26.15,17.35 -11.35,11.35 -17.35,26.2 -6.25,15.4 -5.7,32.15 1,30.95 23.1,53.05 22.15,22.15 53.1,23.15 16.8,0.55 32.15,-5.7 14.8,-6 26.15,-17.35 z"
         id="path2712"
         inkscape:connector-curvature="0"
         style="fill:url(#Gradient_6);stroke:none" />
    </g>
    <g
       id="Symbol_4_0_Layer0_4_FILL">
      <path
         d="m 689.15,188.35 q -6,-14.15 -16.95,-25.05 -10.95,-10.95 -25.1,-16.95 -14.7,-6.2 -30.7,-6.2 -16,0 -30.7,6.2 -14.15,6 -25.05,16.95 -10.95,10.9 -16.95,25.05 -6.2,14.7 -6.2,30.7 0,16.05 6.2,30.7 6,14.2 16.95,25.1 10.9,10.95 25.05,16.95 14.7,6.2 30.7,6.2 16.05,0 30.7,-6.2 14.15,-6 25.1,-16.95 10.95,-10.95 16.95,-25.1 6.2,-14.65 6.2,-30.7 0,-16 -6.2,-30.7 m -17.4,-24.6 q 10.85,10.85 16.8,24.85 6.15,14.55 6.15,30.45 0,15.9 -6.15,30.45 -5.95,14.05 -16.8,24.9 -10.85,10.85 -24.9,16.8 -14.55,6.15 -30.45,6.15 -15.9,0 -30.45,-6.15 -14,-5.95 -24.85,-16.8 -10.85,-10.85 -16.8,-24.9 -6.15,-14.55 -6.15,-30.45 0,-15.9 6.15,-30.45 5.95,-14 16.8,-24.85 10.85,-10.85 24.85,-16.8 14.55,-6.15 30.45,-6.15 15.9,0 30.45,6.15 14.05,5.95 24.9,16.8 z"
         id="path2715"
         inkscape:connector-curvature="0"
         style="fill:url(#Gradient_7);stroke:none" />
    </g>
    <g
       id="flash0_ai_Objects__Path__0_Layer0_0_FILL">
      <path
         d="m 147.25,36 q 5.15,-17.5 2,-36 Q 130.2,24.45 102.15,38.35 73.15,52.7 40.35,52.7 19.8,52.7 0,46.8 9.25,66.85 27.6,79.25 46.4,91.9 69.1,92.6 q 18.1,0.55 34.5,-6.75 15.8,-7 27.25,-20.05 11.5,-13.15 16.4,-29.8 z"
         id="path2718"
         inkscape:connector-curvature="0"
         style="fill:#000000;stroke:none" />
    </g>
    <g
       id="Symbol_14_0_Layer0_0_FILL">
      <path
         d="M 24.35,-41.8 0,-17.45 -24.35,-41.8 -41.8,-24.35 -17.45,0 -41.8,24.3 -24.35,41.8 0,17.45 24.35,41.8 41.8,24.35 17.45,0 41.8,-24.35 Z"
         id="path2721"
         inkscape:connector-curvature="0"
         style="fill:#000000;stroke:none" />
    </g>
    <path
       id="Symbol_4_0_Layer0_0_1_STROKES"
       stroke-miterlimit="10"
       d="m 616.75,309.05 q -18.25,0 -34.95,-7.05 -16.1,-6.8 -28.55,-19.25 -12.45,-12.4 -19.25,-28.5 -7.05,-16.7 -7.05,-34.95 0,-18.25 7.05,-34.95 6.8,-16.1 19.25,-28.5 12.45,-12.45 28.55,-19.25 16.7,-7.05 34.95,-7.05 18.25,0 34.95,7.05 16.1,6.8 28.5,19.25 12.45,12.4 19.25,28.5 7.05,16.7 7.05,34.95 0,18.25 -7.05,34.95 -6.8,16.1 -19.25,28.5 -12.4,12.45 -28.5,19.25 -16.7,7.05 -34.95,7.05 z m 0,-188.2 q -20.05,0 -38.35,7.75 -17.65,7.45 -31.25,21.1 -13.65,13.6 -21.1,31.25 -7.75,18.3 -7.75,38.35 0,20 7.75,38.3 7.45,17.7 21.1,31.3 13.6,13.65 31.25,21.1 18.3,7.75 38.35,7.75 20,0 38.3,-7.75 17.7,-7.45 31.3,-21.1 13.65,-13.6 21.1,-31.3 7.75,-18.3 7.75,-38.3 0,-20.05 -7.75,-38.35 -7.45,-17.65 -21.1,-31.25 -13.6,-13.65 -31.3,-21.1 -18.3,-7.75 -38.3,-7.75 z"
       inkscape:connector-curvature="0"
       style="fill:none;stroke:url(#Gradient_3);stroke-width:0.5;stroke-linecap:butt;stroke-linejoin:miter;stroke-miterlimit:10" />
  </defs>
  <g
     transform="translate(391.33816,618.95789)"
     id="g2773">
    <g
       transform="matrix(0.53216553,-0.56520081,0.56520081,0.53216553,56.65,55.85)"
       id="g2731">
      <g
         id="g2729">
        <use
           xlink:href="#Symbol_8_copy_3_0_Layer0_0_FILL"
           id="use2727"
           style="filter:url(#Filter_1)"
           x="0"
           y="0"
           width="100%"
           height="100%" />
      </g>
    </g>
    <g
       transform="matrix(0.28883362,0,0,0.28883362,28.45,28.45)"
       id="g2771">
      <g
         transform="translate(-616.75,-219.3)"
         id="g2737">
        <use
           xlink:href="#Symbol_4_0_Layer0_0_FILL"
           id="use2733"
           x="0"
           y="0"
           width="100%"
           height="100%" />
        <use
           xlink:href="#Symbol_4_0_Layer0_0_1_STROKES"
           id="use2735"
           x="0"
           y="0"
           width="100%"
           height="100%" />
      </g>
      <g
         transform="translate(-616.75,-219.3)"
         id="g2741">
        <use
           xlink:href="#Symbol_4_0_Layer0_1_FILL"
           id="use2739"
           x="0"
           y="0"
           width="100%"
           height="100%" />
      </g>
      <g
         transform="translate(-616.75,-219.3)"
         id="g2745">
        <use
           xlink:href="#Symbol_4_0_Layer0_2_FILL"
           id="use2743"
           x="0"
           y="0"
           width="100%"
           height="100%" />
      </g>
      <g
         transform="translate(-616.75,-219.3)"
         id="g2749">
        <use
           xlink:href="#Symbol_4_0_Layer0_3_MEMBER_0_MEMBER_0_MEMBER_0_FILL"
           id="use2747"
           x="0"
           y="0"
           width="100%"
           height="100%" />
      </g>
      <g
         transform="translate(-616.75,-219.3)"
         id="g2753">
        <use
           xlink:href="#Symbol_4_0_Layer0_3_MEMBER_0_MEMBER_0_MEMBER_1_FILL"
           id="use2751"
           x="0"
           y="0"
           width="100%"
           height="100%" />
      </g>
      <g
         transform="translate(-616.75,-219.3)"
         id="g2757">
        <use
           xlink:href="#Symbol_4_0_Layer0_4_FILL"
           id="use2755"
           x="0"
           y="0"
           width="100%"
           height="100%" />
      </g>
      <g
         transform="translate(-71.6,-13.8)"
         id="g2763">
        <g
           id="g2761">
          <use
             xlink:href="#flash0_ai_Objects__Path__0_Layer0_0_FILL"
             id="use2759"
             style="filter:url(#Filter_2)"
             x="0"
             y="0"
             width="100%"
             height="100%" />
        </g>
      </g>
      <g
         transform="translate(2.45,-1.3)"
         id="g2769">
        <g
           id="g2767">
          <use
             xlink:href="#Symbol_14_0_Layer0_0_FILL"
             id="use2765"
             style="filter:url(#Filter_3)"
             x="0"
             y="0"
             width="100%"
             height="100%" />
        </g>
      </g>
    </g>
  </g>
</svg>
