
<svg xmlns="http://www.w3.org/2000/svg" version="1.1" xmlns:xlink="http://www.w3.org/1999/xlink" preserveAspectRatio="none" x="0px" y="0px" width="90px" height="90px" viewBox="0 0 90 90">
<defs>
<linearGradient id="Gradient_1" gradientUnits="userSpaceOnUse" x1="184.45" y1="119.95" x2="184.45" y2="332.65000000000003" spreadMethod="pad">
<stop  offset="0%" stop-color="#FFFFFF"/>

<stop  offset="18.431372549019606%" stop-color="#F8F8F9"/>

<stop  offset="45.88235294117647%" stop-color="#E4E6E8"/>

<stop  offset="79.2156862745098%" stop-color="#C3C8CD"/>

<stop  offset="100%" stop-color="#AAB1B9"/>
</linearGradient>

<linearGradient id="Gradient_2" gradientUnits="userSpaceOnUse" x1="85.74999999999999" y1="219.3" x2="283.15" y2="219.3" spreadMethod="pad">
<stop  offset="0%" stop-color="#FFFFFF"/>

<stop  offset="8.235294117647058%" stop-color="#F8F8F9"/>

<stop  offset="20.784313725490197%" stop-color="#E4E6E8"/>

<stop  offset="35.68627450980392%" stop-color="#C3C8CD"/>

<stop  offset="45.09803921568628%" stop-color="#AAB1B9"/>

<stop  offset="90.98039215686275%" stop-color="#FBFBFB"/>

<stop  offset="93.33333333333333%" stop-color="#F1F2F3"/>

<stop  offset="97.25490196078431%" stop-color="#D6D9DD"/>

<stop  offset="100%" stop-color="#BFC4CA"/>
</linearGradient>

<linearGradient id="Gradient_3" gradientUnits="userSpaceOnUse" x1="184.45" y1="128.6875" x2="184.45" y2="322.6125" spreadMethod="pad">
<stop  offset="0%" stop-color="#AAB1B9"/>

<stop  offset="20.784313725490197%" stop-color="#C3C8CD"/>

<stop  offset="54.11764705882353%" stop-color="#E4E6E8"/>

<stop  offset="81.56862745098039%" stop-color="#F8F8F9"/>

<stop  offset="100%" stop-color="#FFFFFF"/>
</linearGradient>

<linearGradient id="Gradient_4" gradientUnits="userSpaceOnUse" x1="184.45" y1="134.75" x2="184.45" y2="305.15" spreadMethod="pad">
<stop  offset="0%" stop-color="#FCC304"/>

<stop  offset="27.45098039215686%" stop-color="#FAC004"/>

<stop  offset="50.98039215686274%" stop-color="#F5B504"/>

<stop  offset="72.94117647058823%" stop-color="#ECA404"/>

<stop  offset="93.72549019607843%" stop-color="#E08B04"/>

<stop  offset="100%" stop-color="#DB8204"/>
</linearGradient>

<radialGradient id="Gradient_5" gradientUnits="userSpaceOnUse" cx="0" cy="0" r="103.68750000000003" fx="0" fy="0" gradientTransform="matrix( 0.9999999999999998, 0, 0, -0.9999999999999998, 188.1,219.95) " spreadMethod="pad">
<stop  offset="0%" stop-color="#FCD304"/>

<stop  offset="3.1372549019607843%" stop-color="#FBD004"/>

<stop  offset="68.23529411764706%" stop-color="#E49804"/>

<stop  offset="100%" stop-color="#DB8204"/>
</radialGradient>

<linearGradient id="Gradient_6" gradientUnits="userSpaceOnUse" x1="105.64999999999998" y1="219.3" x2="263.25" y2="219.3" spreadMethod="pad">
<stop  offset="0%" stop-color="#FCC304"/>

<stop  offset="27.45098039215686%" stop-color="#FAC004"/>

<stop  offset="50.98039215686274%" stop-color="#F5B504"/>

<stop  offset="72.94117647058823%" stop-color="#ECA404"/>

<stop  offset="93.72549019607843%" stop-color="#E08B04"/>

<stop  offset="100%" stop-color="#DB8204"/>
</linearGradient>

<filter id="Filter_1" x="-20%" y="-20%" width="140%" height="140%" color-interpolation-filters="sRGB">
<feColorMatrix in="SourceGraphic" type="matrix" values="1 0 0 0 0 0 1 0 0 0 0 0 1 0 0 0 0 0 0.79 0" result="result1"/>
</filter>

<filter id="Filter_2" x="-20%" y="-20%" width="140%" height="140%" color-interpolation-filters="sRGB">
<feColorMatrix in="SourceGraphic" type="matrix" values="1 0 0 0 0 0 1 0 0 0 0 0 1 0 0 0 0 0 0.1 0" result="result1"/>
</filter>

<g id="Symbol_2_0_Layer0_0_FILL">
<path fill="url(#Gradient_1)" stroke="none" d="
M 222.8 128.6
Q 204.5 120.85 184.45 120.85 164.45 120.85 146.15 128.6 128.45 136.05 114.85 149.7 101.2 163.3 93.75 180.95 86 199.25 86 219.3 86 239.3 93.75 257.6 101.2 275.3 114.85 288.9 128.45 302.55 146.15 310 164.45 317.75 184.45 317.75 204.5 317.75 222.8 310 240.45 302.55 254.1 288.9 267.7 275.3 275.15 257.6 282.9 239.35 282.9 219.3 282.9 199.25 275.15 180.95 267.7 163.3 254.1 149.7 240.45 136.05 222.8 128.6
M 184.45 129.55
Q 202.7 129.55 219.4 136.6 235.5 143.4 247.95 155.85 260.4 168.25 267.2 184.35 274.25 201.05 274.25 219.3 274.25 237.55 267.2 254.25 260.4 270.35 247.95 282.75 235.5 295.2 219.4 302 202.7 309.05 184.45 309.05 166.2 309.05 149.5 302 133.4 295.2 121 282.75 108.55 270.35 101.75 254.25 94.7 237.55 94.7 219.3 94.7 201.05 101.75 184.35 108.55 168.25 121 155.85 133.4 143.4 149.5 136.6 166.2 129.55 184.45 129.55 Z"/>
</g>

<g id="Symbol_2_0_Layer0_1_FILL">
<path fill="url(#Gradient_1)" stroke="none" d="
M 219.4 136.6
Q 202.7 129.55 184.45 129.55 166.2 129.55 149.5 136.6 133.4 143.4 121 155.85 108.55 168.25 101.75 184.35 94.7 201.05 94.7 219.3 94.7 237.55 101.75 254.25 108.55 270.35 121 282.75 133.4 295.2 149.5 302 166.2 309.05 184.45 309.05 202.7 309.05 219.4 302 235.5 295.2 247.95 282.75 260.4 270.35 267.2 254.25 274.25 237.55 274.25 219.3 274.25 201.05 267.2 184.35 260.4 168.25 247.95 155.85 235.5 143.4 219.4 136.6 Z"/>
</g>

<g id="Symbol_2_0_Layer0_2_FILL">
<path fill="url(#Gradient_3)" stroke="none" d="
M 219.4 136.6
Q 202.7 129.55 184.45 129.55 166.2 129.55 149.5 136.6 133.4 143.4 121 155.85 108.55 168.25 101.75 184.35 94.7 201.05 94.7 219.3 94.7 237.55 101.75 254.25 108.55 270.35 121 282.75 133.4 295.2 149.5 302 166.2 309.05 184.45 309.05 202.7 309.05 219.4 302 235.5 295.2 247.95 282.75 260.4 270.35 267.2 254.25 274.25 237.55 274.25 219.3 274.25 201.05 267.2 184.35 260.4 168.25 247.95 155.85 235.5 143.4 219.4 136.6 Z"/>
</g>

<g id="Symbol_2_0_Layer0_3_FILL">
<path fill="url(#Gradient_4)" stroke="none" d="
M 209.95 136.65
Q 188.45 130.05 165.7 134.8 141 140 123.1 157.95 105.2 175.9 100 200.55 95.2 223.3 101.85 244.8 108.15 265.25 123.35 280.45 138.5 295.65 158.95 301.95 180.45 308.55 203.2 303.8 227.9 298.6 245.85 280.65 263.8 262.7 268.95 238.05 273.75 215.3 267.1 193.8 260.8 173.35 245.6 158.15 230.4 142.95 209.95 136.65 Z"/>
</g>

<g id="Symbol_2_0_Layer0_4_FILL">
<path fill="url(#Gradient_5)" stroke="none" d="
M 240.45 163.3
Q 224.9 147.75 203.65 142.75 184.4 138.2 165.85 142.7 148.3 146.95 134.3 158.5 120.45 169.95 112.9 186.2 105.1 203.05 105.7 221.8 106.65 252.95 128.7 275.05 150.8 297.15 181.95 298.1 200.7 298.65 217.55 290.85 233.8 283.3 245.25 269.45 256.85 255.45 261.1 237.9 265.6 219.4 261.05 200.15 256.05 178.85 240.45 163.3 Z"/>
</g>

<g id="Symbol_2_0_Layer0_5_FILL">
<path fill="url(#Gradient_6)" stroke="none" d="
M 240.15 163.6
Q 229.25 152.7 215.1 146.7 200.45 140.5 184.45 140.5 168.45 140.5 153.8 146.7 139.7 152.7 128.75 163.6 117.85 174.55 111.85 188.65 105.65 203.3 105.65 219.3 105.65 235.3 111.85 249.95 117.85 264.1 128.75 275 139.65 285.9 153.8 291.9 168.45 298.1 184.45 298.1 200.45 298.1 215.1 291.9 229.25 285.9 240.15 275 251.05 264.1 257.05 249.95 263.25 235.3 263.25 219.3 263.25 203.3 257.05 188.65 251.05 174.5 240.15 163.6
M 184.45 141.15
Q 200.35 141.15 214.85 147.3 228.9 153.25 239.7 164.05 250.55 174.9 256.5 188.9 262.65 203.4 262.65 219.3 262.65 235.2 256.5 249.7 250.55 263.7 239.7 274.55 228.9 285.35 214.85 291.3 200.35 297.45 184.45 297.45 168.6 297.45 154.05 291.3 140.05 285.35 129.2 274.55 118.4 263.7 112.45 249.7 106.3 235.2 106.3 219.3 106.3 203.45 112.45 188.9 118.4 174.9 129.2 164.05 140.05 153.25 154.05 147.3 168.6 141.15 184.45 141.15 Z"/>
</g>

<g id="Symbol_13_0_Layer0_0_FILL">
<path fill="#FAFAFB" stroke="none" d="
M 16.15 -13.45
Q 16.15 -14.35 15.35 -14.7 14.5 -15.05 13.85 -14.4
L 11.15 -11.7
Q 8.85 -13.85 6 -15 3.1 -16.15 0 -16.15 -3.25 -16.15 -6.25 -14.9 -9.25 -13.6 -11.45 -11.45 -13.6 -9.25 -14.9 -6.25 -16.15 -3.3 -16.15 0 -16.15 3.25 -14.9 6.25 -13.6 9.25 -11.45 11.45 -9.25 13.6 -6.25 14.9 -3.25 16.15 0 16.15 3.6 16.15 6.9 14.65 10.15 13.1 12.45 10.35 12.6 10.1 12.6 9.85 12.55 9.6 12.4 9.45
L 9.5 6.5
Q 9.3 6.35 9 6.35 8.65 6.4 8.5 6.6 6.95 8.6 4.75 9.7 2.5 10.8 0 10.8 -2.2 10.8 -4.2 9.9 -6.15 9.05 -7.6 7.6 -9.05 6.15 -9.9 4.2 -10.8 2.2 -10.8 0 -10.8 -2.2 -9.9 -4.2 -9.05 -6.15 -7.6 -7.6 -6.15 -9.05 -4.2 -9.9 -2.2 -10.8 0 -10.8 2.05 -10.8 3.95 -10 5.85 -9.3 7.3 -7.9
L 4.45 -5
Q 3.8 -4.35 4.15 -3.55 4.5 -2.7 5.4 -2.7
L 14.8 -2.7
Q 15.35 -2.7 15.75 -3.1 16.15 -3.5 16.15 -4.05
L 16.15 -13.45 Z"/>
</g>

<g id="flash0_ai_Objects__Path__6_0_Layer0_0_FILL">
<path fill="#000000" stroke="none" d="
M 147.25 36
Q 152.4 18.5 149.25 0 130.25 24.45 102.15 38.35 73.15 52.7 40.35 52.7 19.8 52.7 0 46.8 9.25 66.85 27.6 79.25 46.4 91.9 69.1 92.6 87.2 93.15 103.6 85.85 119.4 78.85 130.85 65.8 142.4 52.65 147.25 36 Z"/>
</g>

<path id="Symbol_2_0_Layer0_0_1_STROKES" stroke="url(#Gradient_2)" stroke-width="0.5" stroke-linejoin="miter" stroke-linecap="butt" stroke-miterlimit="10" fill="none" d="
M 184.45 309.05
Q 166.2 309.05 149.5 302 133.4 295.2 121 282.75 108.55 270.35 101.75 254.25 94.7 237.55 94.7 219.3 94.7 201.05 101.75 184.35 108.55 168.25 121 155.85 133.4 143.4 149.5 136.6 166.2 129.55 184.45 129.55 202.7 129.55 219.4 136.6 235.5 143.4 247.95 155.85 260.4 168.25 267.2 184.35 274.25 201.05 274.25 219.3 274.25 237.55 267.2 254.25 260.4 270.35 247.95 282.75 235.5 295.2 219.4 302 202.7 309.05 184.45 309.05 Z
M 184.45 120.85
Q 164.45 120.85 146.15 128.6 128.45 136.05 114.85 149.7 101.2 163.3 93.75 180.95 86 199.25 86 219.3 86 239.3 93.75 257.6 101.2 275.3 114.85 288.9 128.45 302.55 146.15 310 164.45 317.75 184.45 317.75 204.5 317.75 222.8 310 240.45 302.55 254.1 288.9 267.7 275.3 275.15 257.6 282.9 239.35 282.9 219.3 282.9 199.25 275.15 180.95 267.7 163.3 254.1 149.7 240.45 136.05 222.8 128.6 204.5 120.85 184.45 120.85 Z"/>
</defs>

<g transform="matrix( 1, 0, 0, 1, 0.1,0.1) ">
<g transform="matrix( 0.4583587646484375, 0, 0, 0.4583587646484375, 45.15,45.15) ">
<g transform="matrix( 1, 0, 0, 1, -184.45,-219.3) ">
<use xlink:href="#Symbol_2_0_Layer0_0_FILL"/>

<use xlink:href="#Symbol_2_0_Layer0_0_1_STROKES"/>
</g>

<g transform="matrix( 1, 0, 0, 1, -184.45,-219.3) ">
<use xlink:href="#Symbol_2_0_Layer0_1_FILL"/>
</g>

<g transform="matrix( 1, 0, 0, 1, -184.45,-219.3) ">
<use xlink:href="#Symbol_2_0_Layer0_2_FILL"/>
</g>

<g transform="matrix( 1, 0, 0, 1, -184.45,-219.3) ">
<use xlink:href="#Symbol_2_0_Layer0_3_FILL"/>
</g>

<g transform="matrix( 1, 0, 0, 1, -184.45,-219.3) ">
<use xlink:href="#Symbol_2_0_Layer0_4_FILL"/>
</g>

<g transform="matrix( 1, 0, 0, 1, -184.45,-219.3) ">
<use xlink:href="#Symbol_2_0_Layer0_5_FILL"/>
</g>

<g transform="matrix( 3.16363525390625, 0, 0, 3.16363525390625, -0.45,-0.8) ">
<g transform="matrix( 1, 0, 0, 1, 0,0) ">
<use filter="url(#Filter_1)" xlink:href="#Symbol_13_0_Layer0_0_FILL"/>
</g>
</g>

<g transform="matrix( 1, 0, 0, 1, -71.6,-13.8) ">
<g transform="matrix( 1, 0, 0, 1, 0,0) ">
<use filter="url(#Filter_2)" xlink:href="#flash0_ai_Objects__Path__6_0_Layer0_0_FILL"/>
</g>
</g>
</g>
</g>
</svg>
