
<svg xmlns="http://www.w3.org/2000/svg" version="1.1" xmlns:xlink="http://www.w3.org/1999/xlink" preserveAspectRatio="none" x="0px" y="0px" width="584px" height="679px" viewBox="0 0 584 679">
<defs>
<linearGradient id="Gradient_1" gradientUnits="userSpaceOnUse" x1="616.75" y1="119.95" x2="616.75" y2="332.65000000000003" spreadMethod="pad">
<stop  offset="0%" stop-color="#FFFFFF"/>

<stop  offset="18.431372549019606%" stop-color="#F8F8F9"/>

<stop  offset="45.88235294117647%" stop-color="#E4E6E8"/>

<stop  offset="79.2156862745098%" stop-color="#C3C8CD"/>

<stop  offset="100%" stop-color="#AAB1B9"/>
</linearGradient>

<linearGradient id="Gradient_2" gradientUnits="userSpaceOnUse" x1="518.05" y1="219.3" x2="715.45" y2="219.3" spreadMethod="pad">
<stop  offset="0%" stop-color="#FFFFFF"/>

<stop  offset="8.235294117647058%" stop-color="#F8F8F9"/>

<stop  offset="20.784313725490197%" stop-color="#E4E6E8"/>

<stop  offset="35.68627450980392%" stop-color="#C3C8CD"/>

<stop  offset="45.09803921568628%" stop-color="#AAB1B9"/>

<stop  offset="90.98039215686275%" stop-color="#FBFBFB"/>

<stop  offset="93.33333333333333%" stop-color="#F1F2F3"/>

<stop  offset="97.25490196078431%" stop-color="#D6D9DD"/>

<stop  offset="100%" stop-color="#BFC4CA"/>
</linearGradient>

<linearGradient id="Gradient_3" gradientUnits="userSpaceOnUse" x1="616.75" y1="128.6875" x2="616.75" y2="322.6125" spreadMethod="pad">
<stop  offset="0%" stop-color="#AAB1B9"/>

<stop  offset="20.784313725490197%" stop-color="#C3C8CD"/>

<stop  offset="54.11764705882353%" stop-color="#E4E6E8"/>

<stop  offset="81.56862745098039%" stop-color="#F8F8F9"/>

<stop  offset="100%" stop-color="#FFFFFF"/>
</linearGradient>

<linearGradient id="Gradient_4" gradientUnits="userSpaceOnUse" x1="530.3" y1="219.3" x2="703.2" y2="219.3" spreadMethod="pad">
<stop  offset="0%" stop-color="#32C3FF"/>

<stop  offset="20.784313725490197%" stop-color="#32C0FD"/>

<stop  offset="38.8235294117647%" stop-color="#32B5F5"/>

<stop  offset="55.294117647058826%" stop-color="#33A4E8"/>

<stop  offset="71.37254901960785%" stop-color="#338BD6"/>

<stop  offset="86.66666666666667%" stop-color="#336BBE"/>

<stop  offset="100%" stop-color="#3449A5"/>
</linearGradient>

<radialGradient id="Gradient_5" gradientUnits="userSpaceOnUse" cx="0" cy="0" r="94.38750000000005" fx="0" fy="0" gradientTransform="matrix( 0.9999999999999997, 0, 0, -0.9999999999999997, 615.25,218.45) " spreadMethod="pad">
<stop  offset="0%" stop-color="#32C3FF"/>

<stop  offset="22.352941176470587%" stop-color="#32C0FD"/>

<stop  offset="41.568627450980394%" stop-color="#32B5F5"/>

<stop  offset="59.6078431372549%" stop-color="#33A4E8"/>

<stop  offset="76.86274509803921%" stop-color="#338BD6"/>

<stop  offset="93.33333333333333%" stop-color="#346BBE"/>

<stop  offset="100%" stop-color="#345CB3"/>
</radialGradient>

<linearGradient id="Gradient_6" gradientUnits="userSpaceOnUse" x1="537.4875" y1="219.05" x2="695.3125" y2="219.05" spreadMethod="pad">
<stop  offset="0%" stop-color="#32C3FF"/>

<stop  offset="30.19607843137255%" stop-color="#3394DD"/>

<stop  offset="60.78431372549019%" stop-color="#336CBF"/>

<stop  offset="85.49019607843137%" stop-color="#3452AC"/>

<stop  offset="100%" stop-color="#3449A5"/>
</linearGradient>

<linearGradient id="Gradient_7" gradientUnits="userSpaceOnUse" x1="0" y1="-159.7375" x2="0" y2="182.2375" spreadMethod="pad">
<stop  offset="0%" stop-color="#FFFFFF"/>

<stop  offset="18.431372549019606%" stop-color="#F8F8F9"/>

<stop  offset="45.88235294117647%" stop-color="#E4E6E8"/>

<stop  offset="79.2156862745098%" stop-color="#C3C8CD"/>

<stop  offset="100%" stop-color="#AAB1B9"/>
</linearGradient>

<linearGradient id="Gradient_8" gradientUnits="userSpaceOnUse" x1="0" y1="-163.3375" x2="0" y2="186.13750000000002" spreadMethod="pad">
<stop  offset="0%" stop-color="#AAB1B9"/>

<stop  offset="20.784313725490197%" stop-color="#C3C8CD"/>

<stop  offset="54.11764705882353%" stop-color="#E4E6E8"/>

<stop  offset="81.56862745098039%" stop-color="#F8F8F9"/>

<stop  offset="100%" stop-color="#FFFFFF"/>
</linearGradient>

<linearGradient id="Gradient_9" gradientUnits="userSpaceOnUse" x1="-158.66250000000002" y1="0" x2="158.66250000000002" y2="0" spreadMethod="pad">
<stop  offset="0%" stop-color="#FFFFFF"/>

<stop  offset="8.235294117647058%" stop-color="#F8F8F9"/>

<stop  offset="20.784313725490197%" stop-color="#E4E6E8"/>

<stop  offset="35.68627450980392%" stop-color="#C3C8CD"/>

<stop  offset="45.09803921568628%" stop-color="#AAB1B9"/>

<stop  offset="90.98039215686275%" stop-color="#FBFBFB"/>

<stop  offset="93.33333333333333%" stop-color="#F1F2F3"/>

<stop  offset="97.25490196078431%" stop-color="#D6D9DD"/>

<stop  offset="100%" stop-color="#BFC4CA"/>
</linearGradient>

<linearGradient id="Gradient_10" gradientUnits="userSpaceOnUse" x1="172.8875" y1="430.7" x2="313.6125" y2="430.7" spreadMethod="pad">
<stop  offset="0%" stop-color="#FFFFFF"/>

<stop  offset="1.9607843137254901%" stop-color="#F8F8F9"/>

<stop  offset="5.098039215686274%" stop-color="#E4E6E8"/>

<stop  offset="7.8431372549019605%" stop-color="#CCD0D5"/>

<stop  offset="10.588235294117647%" stop-color="#BDC2C8"/>

<stop  offset="13.333333333333334%" stop-color="#AAB1B9"/>

<stop  offset="90.98039215686275%" stop-color="#FBFBFB"/>

<stop  offset="92.94117647058823%" stop-color="#F1F2F3"/>

<stop  offset="94.90196078431373%" stop-color="#DFE1E4"/>

<stop  offset="100%" stop-color="#BFC4CA"/>
</linearGradient>

<linearGradient id="Gradient_11" gradientUnits="userSpaceOnUse" x1="242.75" y1="483.3375" x2="242.75" y2="378.0625" spreadMethod="pad">
<stop  offset="0%" stop-color="#FFFFFF"/>

<stop  offset="18.431372549019606%" stop-color="#F8F8F9"/>

<stop  offset="45.88235294117647%" stop-color="#E4E6E8"/>

<stop  offset="79.2156862745098%" stop-color="#C3C8CD"/>

<stop  offset="100%" stop-color="#AAB1B9"/>
</linearGradient>

<radialGradient id="Gradient_12" gradientUnits="userSpaceOnUse" cx="0" cy="0" r="82.38749999999999" fx="0" fy="0" gradientTransform="matrix( 0, 1.0000000000000002, 1.0000000000000002, 0, 241.8,410.9) " spreadMethod="pad">
<stop  offset="0%" stop-color="#FC3F04"/>

<stop  offset="31.372549019607842%" stop-color="#FA3E04"/>

<stop  offset="48.23529411764706%" stop-color="#F23A04"/>

<stop  offset="61.568627450980394%" stop-color="#E43304"/>

<stop  offset="73.33333333333333%" stop-color="#D12904"/>

<stop  offset="83.52941176470588%" stop-color="#B81D04"/>

<stop  offset="92.94117647058823%" stop-color="#9A0E04"/>

<stop  offset="100%" stop-color="#7E0004"/>
</radialGradient>

<linearGradient id="Gradient_13" gradientUnits="userSpaceOnUse" x1="187.7125" y1="427.4" x2="297.7875" y2="427.4" spreadMethod="pad">
<stop  offset="0%" stop-color="#D32A04"/>

<stop  offset="24.313725490196077%" stop-color="#910904"/>

<stop  offset="29.41176470588235%" stop-color="#A81504"/>

<stop  offset="38.8235294117647%" stop-color="#CB2604"/>

<stop  offset="43.529411764705884%" stop-color="#D82D04"/>

<stop  offset="46.666666666666664%" stop-color="#D32A04"/>

<stop  offset="82.74509803921569%" stop-color="#960C04"/>

<stop  offset="100%" stop-color="#7E0004"/>
</linearGradient>

<filter id="Filter_1" x="-20%" y="-20%" width="140%" height="140%" color-interpolation-filters="sRGB">
<feColorMatrix in="SourceGraphic" type="matrix" values="1 0 0 0 0 0 1 0 0 0 0 0 1 0 0 0 0 0 0.1 0" result="result1"/>
</filter>

<filter id="Filter_2" x="-20%" y="-20%" width="140%" height="140%" color-interpolation-filters="sRGB">
<feColorMatrix in="SourceGraphic" type="matrix" values="1 0 0 0 0 0 1 0 0 0 0 0 1 0 0 0 0 0 0.14 0" result="result1"/>
</filter>

<g id="Symbol_4_copy_0_Layer0_0_FILL">
<path fill="url(#Gradient_1)" stroke="none" d="
M 686.35 149.7
Q 672.75 136.05 655.05 128.6 636.75 120.85 616.75 120.85 596.7 120.85 578.4 128.6 560.75 136.05 547.15 149.7 533.5 163.3 526.05 180.95 518.3 199.25 518.3 219.3 518.3 239.3 526.05 257.6 533.5 275.3 547.15 288.9 560.75 302.55 578.4 310 596.7 317.75 616.75 317.75 636.75 317.75 655.05 310 672.75 302.55 686.35 288.9 700 275.3 707.45 257.6 715.2 239.3 715.2 219.3 715.2 199.25 707.45 180.95 700 163.3 686.35 149.7
M 680.2 155.85
Q 692.65 168.25 699.45 184.35 706.5 201.05 706.5 219.3 706.5 237.55 699.45 254.25 692.65 270.35 680.2 282.75 667.8 295.2 651.7 302 635 309.05 616.75 309.05 598.5 309.05 581.8 302 565.7 295.2 553.25 282.75 540.8 270.35 534 254.25 526.95 237.55 526.95 219.3 526.95 201.05 534 184.35 540.8 168.25 553.25 155.85 565.7 143.4 581.8 136.6 598.5 129.55 616.75 129.55 635 129.55 651.7 136.6 667.8 143.4 680.2 155.85 Z"/>
</g>

<g id="Symbol_4_copy_0_Layer0_1_FILL">
<path fill="url(#Gradient_1)" stroke="none" d="
M 680.2 155.85
Q 667.8 143.4 651.7 136.6 635 129.55 616.75 129.55 598.5 129.55 581.8 136.6 565.7 143.4 553.25 155.85 540.8 168.25 534 184.35 526.95 201.05 526.95 219.3 526.95 237.55 534 254.25 540.8 270.35 553.25 282.75 565.7 295.2 581.8 302 598.5 309.05 616.75 309.05 635 309.05 651.7 302 667.8 295.2 680.2 282.75 692.65 270.35 699.45 254.25 706.5 237.55 706.5 219.3 706.5 201.05 699.45 184.35 692.65 168.25 680.2 155.85 Z"/>
</g>

<g id="Symbol_4_copy_0_Layer0_2_FILL">
<path fill="url(#Gradient_3)" stroke="none" d="
M 680.2 155.85
Q 667.8 143.4 651.7 136.6 635 129.55 616.75 129.55 598.5 129.55 581.8 136.6 565.7 143.4 553.25 155.85 540.8 168.25 534 184.35 526.95 201.05 526.95 219.3 526.95 237.55 534 254.25 540.8 270.35 553.25 282.75 565.7 295.2 581.8 302 598.5 309.05 616.75 309.05 635 309.05 651.7 302 667.8 295.2 680.2 282.75 692.65 270.35 699.45 254.25 706.5 237.55 706.5 219.3 706.5 201.05 699.45 184.35 692.65 168.25 680.2 155.85 Z"/>
</g>

<g id="Symbol_4_copy_0_Layer0_3_MEMBER_0_MEMBER_0_MEMBER_0_FILL">
<path fill="url(#Gradient_4)" stroke="none" d="
M 677.9 158.15
Q 665.9 146.2 650.4 139.65 634.35 132.85 616.75 132.85 599.15 132.85 583.1 139.65 567.6 146.2 555.6 158.15 543.65 170.15 537.1 185.65 530.3 201.7 530.3 219.3 530.3 236.9 537.1 252.95 543.65 268.45 555.6 280.45 567.6 292.4 583.1 298.95 599.15 305.75 616.75 305.75 634.35 305.75 650.4 298.95 665.9 292.4 677.9 280.45 689.85 268.45 696.4 252.95 703.2 236.9 703.2 219.3 703.2 201.7 696.4 185.65 689.85 170.15 677.9 158.15 Z"/>
</g>

<g id="Symbol_4_copy_0_Layer0_3_MEMBER_0_MEMBER_0_MEMBER_1_FILL">
<path fill="url(#Gradient_5)" stroke="none" d="
M 672.45 275.05
Q 683.8 263.7 689.8 248.85 696.05 233.5 695.5 216.7 694.55 185.75 672.4 163.65 650.3 141.5 619.3 140.5 602.55 139.95 587.15 146.2 572.35 152.2 561 163.55 549.65 174.9 543.65 189.75 537.4 205.15 537.95 221.9 538.95 252.85 561.05 274.95 583.2 297.1 614.15 298.1 630.95 298.65 646.3 292.4 661.1 286.4 672.45 275.05 Z"/>
</g>

<g id="Symbol_4_copy_0_Layer0_4_FILL">
<path fill="url(#Gradient_6)" stroke="none" d="
M 689.15 188.35
Q 683.15 174.2 672.2 163.3 661.25 152.35 647.1 146.35 632.4 140.15 616.4 140.15 600.4 140.15 585.7 146.35 571.55 152.35 560.65 163.3 549.7 174.2 543.7 188.35 537.5 203.05 537.5 219.05 537.5 235.1 543.7 249.75 549.7 263.95 560.65 274.85 571.55 285.8 585.7 291.8 600.4 298 616.4 298 632.45 298 647.1 291.8 661.25 285.8 672.2 274.85 683.15 263.9 689.15 249.75 695.35 235.1 695.35 219.05 695.35 203.05 689.15 188.35
M 671.75 163.75
Q 682.6 174.6 688.55 188.6 694.7 203.15 694.7 219.05 694.7 234.95 688.55 249.5 682.6 263.55 671.75 274.4 660.9 285.25 646.85 291.2 632.3 297.35 616.4 297.35 600.5 297.35 585.95 291.2 571.95 285.25 561.1 274.4 550.25 263.55 544.3 249.5 538.15 234.95 538.15 219.05 538.15 203.15 544.3 188.6 550.25 174.6 561.1 163.75 571.95 152.9 585.95 146.95 600.5 140.8 616.4 140.8 632.3 140.8 646.85 146.95 660.9 152.9 671.75 163.75 Z"/>
</g>

<g id="flash0_ai_Objects__Path__0_Layer0_0_FILL">
<path fill="#000000" stroke="none" d="
M 147.25 36
Q 152.4 18.5 149.25 0 130.2 24.45 102.15 38.35 73.15 52.7 40.35 52.7 19.8 52.7 0 46.8 9.25 66.85 27.6 79.25 46.4 91.9 69.1 92.6 87.2 93.15 103.6 85.85 119.4 78.85 130.85 65.8 142.35 52.65 147.25 36 Z"/>
</g>

<g id="Symbol_5_0_Layer0_0_FILL">
<path fill="#FEE13D" stroke="none" d="
M 404.25 564.25
L 404 563.75 397.9 563.75 398.15 564.25 416.05 596.35 502.4 596.35
Q 508.35 596.35 512.55 600.5 516.5 604.45 516.65 610.1
L 516.65 607
Q 516.65 601.1 512.5 596.95 508.3 592.75 502.4 592.75
L 420.25 592.75 404.25 564.25
M 201.9 563.75
L 201.65 564.25 184.45 598.75 184.15 599.35 184.05 599.3 184.05 668.75 185.35 668.75 185.35 599.9 203.1 564.25 203.35 563.75 201.9 563.75
M 181.15 564.25
L 165.35 592.75 84.55 592.75
Q 78.7 592.75 74.5 596.95 70.35 601.1 70.35 607
L 70.35 610.1
Q 70.5 604.5 74.5 600.5 78.65 596.35 84.55 596.35
L 170.4 596.35 187.85 564.25 188.15 563.75 181.4 563.75 181.15 564.25 Z"/>

<path fill="#FF8E0C" stroke="none" d="
M 74.5 668.5
Q 70.5 664.5 70.35 658.9
L 70.35 665.15
Q 70.35 671 74.5 675.15 78.7 679.3 84.55 679.3
L 502.4 679.3
Q 508.3 679.3 512.5 675.15 516.65 671 516.65 665.15
L 516.65 658.9
Q 516.5 664.55 512.55 668.5 508.3 672.7 502.4 672.7
L 84.55 672.7
Q 78.7 672.7 74.5 668.5 Z"/>

<path fill="#FAC53B" stroke="none" d="
M 188.15 563.75
L 187.85 564.25 170.4 596.35 84.55 596.35
Q 78.65 596.35 74.5 600.5 70.5 604.5 70.35 610.1
L 70.35 658.9
Q 70.5 664.5 74.5 668.5 78.7 672.7 84.55 672.7
L 502.4 672.7
Q 508.3 672.7 512.55 668.5 516.5 664.55 516.65 658.9
L 516.65 610.1
Q 516.5 604.45 512.55 600.5 508.35 596.35 502.4 596.35
L 416.05 596.35 398.15 564.25 397.9 563.75
Q 301.55 589.35 203.35 563.75
L 203.1 564.25 185.35 599.9 185.35 668.75 184.05 668.75 182.75 668.75 182.75 598.75 183 598.75 200.2 564.25 200.45 563.75 188.15 563.75 Z"/>

<path fill="#FAAC27" stroke="none" d="
M 201.65 564.25
L 201.9 563.75 200.45 563.75 200.2 564.25 183 598.75 182.75 598.75 182.75 668.75 184.05 668.75 184.05 599.3 184.15 599.35 184.45 598.75 201.65 564.25 Z"/>
</g>

<g id="Symbol_7_0_Layer0_0_FILL">
<path fill="url(#Gradient_7)" stroke="none" d="
M 61.6 -145.8
Q 32.1 -158.25 0 -158.25 -32.1 -158.25 -61.6 -145.8 -90 -133.85 -111.85 -111.85 -133.85 -90 -145.8 -61.65 -158.25 -32.2 -158.25 0 -158.25 32.1 -145.8 61.6 -133.85 90 -111.85 111.85 -90 133.85 -61.6 145.8 -32.1 158.25 0 158.25 32.1 158.25 61.6 145.8 90 133.85 111.9 111.85 133.85 90 145.8 61.6 158.25 32.1 158.25 0 158.25 -32.2 145.8 -61.65 133.85 -90 111.9 -111.85 90 -133.85 61.6 -145.8
M 0 -149.25
Q 30.3 -149.25 58.1 -137.5 84.9 -126.2 105.6 -105.5 126.2 -84.9 137.5 -58.1 149.25 -30.3 149.25 0 149.25 30.3 137.5 58.1 126.2 84.9 105.6 105.5 84.9 126.2 58.1 137.5 30.3 149.25 0 149.25 -30.3 149.25 -58.1 137.5 -84.85 126.2 -105.5 105.5 -126.2 84.9 -137.5 58.1 -149.25 30.3 -149.25 0 -149.25 -30.3 -137.5 -58.1 -126.2 -84.9 -105.5 -105.5 -84.85 -126.2 -58.1 -137.5 -30.3 -149.25 0 -149.25 Z"/>

<path fill="url(#Gradient_8)" stroke="none" d="
M 58.1 -137.5
Q 30.3 -149.25 0 -149.25 -30.3 -149.25 -58.1 -137.5 -84.85 -126.2 -105.5 -105.5 -126.2 -84.9 -137.5 -58.1 -149.25 -30.3 -149.25 0 -149.25 30.3 -137.5 58.1 -126.2 84.9 -105.5 105.5 -84.85 126.2 -58.1 137.5 -30.3 149.25 0 149.25 30.3 149.25 58.1 137.5 84.9 126.2 105.6 105.5 126.2 84.9 137.5 58.1 149.25 30.3 149.25 0 149.25 -30.3 137.5 -58.1 126.2 -84.9 105.6 -105.5 84.9 -126.2 58.1 -137.5
M 0 -143.5
Q 59.45 -143.5 101.5 -101.5 143.5 -59.45 143.5 0 143.5 59.45 101.5 101.5 59.45 143.5 0 143.5 -59.45 143.5 -101.5 101.5 -143.5 59.45 -143.5 0 -143.5 -59.45 -101.5 -101.5 -59.45 -143.5 0 -143.5 Z"/>
</g>

<g id="Symbol_10_0_Layer0_0_FILL">
<path fill="url(#Gradient_10)" stroke="none" d="
M 184.8 378.3
Q 182.3 378.3 180.25 379.65 177.7 381.25 177.15 384.25 176.55 387.2 178.2 389.75
L 236.05 479.7
Q 238.2 483.1 242.25 483.1 246.25 483.15 248.45 479.75
L 307.25 389.8
Q 308.9 387.25 308.35 384.25 307.75 381.25 305.2 379.65 303.15 378.3 300.7 378.3
L 184.8 378.3 Z"/>
</g>

<g id="Symbol_10_0_Layer0_1_FILL">
<path fill="url(#Gradient_12)" stroke="none" d="
M 196.4 384
Q 193.95 384 191.85 385.35 189.8 386.6 188.75 388.75 188.1 390.1 188.2 391.65 188.3 393.15 189.15 394.45
L 237.35 468.2
Q 239.1 470.85 242.25 470.85 245.4 470.85 247.15 468.25
L 296.3 394.5
Q 297.15 393.15 297.25 391.65 297.35 390.05 296.7 388.7 295.65 386.6 293.6 385.3 291.55 384 289.1 384
L 196.4 384 Z"/>
</g>

<g id="Symbol_9_0_Layer0_0_FILL">
<path fill="#000000" stroke="none" d="
M 24.35 -25.8
Q 15 -9.85 12.8 -6.75 -5.1 18.75 -34.25 20.05 -30.95 27.1 -26.3 32.5 -18.5 41.55 -13.3 35.5
L 34.25 -37.95
Q 30.1 -35.6 24.35 -25.8 Z"/>
</g>

<path id="Symbol_4_copy_0_Layer0_0_1_STROKES" stroke="url(#Gradient_2)" stroke-width="0.5" stroke-linejoin="miter" stroke-linecap="butt" stroke-miterlimit="10" fill="none" d="
M 616.75 120.85
Q 596.7 120.85 578.4 128.6 560.75 136.05 547.15 149.7 533.5 163.3 526.05 180.95 518.3 199.25 518.3 219.3 518.3 239.3 526.05 257.6 533.5 275.3 547.15 288.9 560.75 302.55 578.4 310 596.7 317.75 616.75 317.75 636.75 317.75 655.05 310 672.75 302.55 686.35 288.9 700 275.3 707.45 257.6 715.2 239.3 715.2 219.3 715.2 199.25 707.45 180.95 700 163.3 686.35 149.7 672.75 136.05 655.05 128.6 636.75 120.85 616.75 120.85 Z
M 616.75 309.05
Q 598.5 309.05 581.8 302 565.7 295.2 553.25 282.75 540.8 270.35 534 254.25 526.95 237.55 526.95 219.3 526.95 201.05 534 184.35 540.8 168.25 553.25 155.85 565.7 143.4 581.8 136.6 598.5 129.55 616.75 129.55 635 129.55 651.7 136.6 667.8 143.4 680.2 155.85 692.65 168.25 699.45 184.35 706.5 201.05 706.5 219.3 706.5 237.55 699.45 254.25 692.65 270.35 680.2 282.75 667.8 295.2 651.7 302 635 309.05 616.75 309.05 Z"/>

<path id="Symbol_7_0_Layer0_0_1_STROKES" stroke="url(#Gradient_9)" stroke-width="0.5" stroke-linejoin="miter" stroke-linecap="butt" stroke-miterlimit="10" fill="none" d="
M 0 -158.25
Q -32.1 -158.25 -61.6 -145.8 -90 -133.85 -111.85 -111.85 -133.85 -90 -145.8 -61.65 -158.25 -32.2 -158.25 0 -158.25 32.1 -145.8 61.6 -133.85 90 -111.85 111.85 -90 133.85 -61.6 145.8 -32.1 158.25 0 158.25 32.1 158.25 61.6 145.8 90 133.85 111.9 111.85 133.85 90 145.8 61.6 158.25 32.1 158.25 0 158.25 -32.2 145.8 -61.65 133.85 -90 111.9 -111.85 90 -133.85 61.6 -145.8 32.1 -158.25 0 -158.25 Z"/>

<path id="Symbol_10_0_Layer0_0_1_STROKES" stroke="url(#Gradient_11)" stroke-width="0.5" stroke-linejoin="miter" stroke-linecap="butt" stroke-miterlimit="10" fill="none" d="
M -4.0088348388671875 38.50914764404297
L -38.58677978515625 -32.21310653686521
Q -39.57301330566405 -34.218017578125 -39.21438293457031 -36.53742446899412 -38.88563842773438 -38.89614334106443 -37.36145935058593 -40.154126739501976 -36.13613891601561 -41.21555023193355 -34.641845703124986 -41.21555023193355
L 34.633587646484386 -41.21555023193355
Q 36.097994995117176 -41.21555023193355 37.32331542968751 -40.154126739501976 38.84749450683594 -38.89614334106443 39.20612487792971 -36.53742446899412 39.534869384765614 -34.178705596923805 38.54863586425782 -32.17379455566402
L 3.402859497070324 38.54845962524416
Q 2.087881469726568 41.221674346923805 -0.3029876708984318 41.182362365722724 -2.7237426757812386 41.182362365722724 -4.0088348388671875 38.50914764404297 Z"/>

<path id="Symbol_10_0_Layer0_1_1_STROKES" stroke="url(#Gradient_13)" stroke-width="1" stroke-linejoin="miter" stroke-linecap="butt" stroke-miterlimit="10" fill="none" d="
M -3.231802368164068 29.467391967773438
L -32.04177551269531 -28.517780303955078
Q -32.54983520507811 -29.53989181518557 -32.60960693359375 -30.719251251220726 -32.66937866210937 -31.937922668456963 -32.28086242675781 -32.99934616088865 -31.653259277343736 -34.689761352538994 -30.42793884277343 -35.67256088256829 -29.172732543945315 -36.73398437499998 -27.708325195312497 -36.73398437499998
L 27.700067138671898 -36.73398437499998
Q 29.164474487304688 -36.73398437499998 30.389794921875023 -35.711872863769486 31.6151153564453 -34.689761352538994 32.242718505859386 -33.038658142089844 32.63123474121096 -31.977234649658158 32.57146301269532 -30.719251251220726 32.511691284179676 -29.53989181518557 32.003631591796875 -28.478468322753884
L 2.6258270263672046 29.506703948974632
Q 1.579821777343767 31.550926971435615 -0.3029876708984318 31.550926971435615 -2.1857971191406307 31.550926971435615 -3.231802368164068 29.467391967773438 Z"/>
</defs>

<g transform="matrix( 1, 0, 0, 1, 0.5,0.25) ">
<g transform="matrix( 0.1424407958984375, 0, 0, 0.1424407958984375, 292.55,300.15) ">
<g transform="matrix( 1, 0, 0, 1, -616.75,-219.3) ">
<use xlink:href="#Symbol_4_copy_0_Layer0_0_FILL"/>

<use xlink:href="#Symbol_4_copy_0_Layer0_0_1_STROKES"/>
</g>

<g transform="matrix( 1, 0, 0, 1, -616.75,-219.3) ">
<use xlink:href="#Symbol_4_copy_0_Layer0_1_FILL"/>
</g>

<g transform="matrix( 1, 0, 0, 1, -616.75,-219.3) ">
<use xlink:href="#Symbol_4_copy_0_Layer0_2_FILL"/>
</g>

<g transform="matrix( 1, 0, 0, 1, -616.75,-219.3) ">
<use xlink:href="#Symbol_4_copy_0_Layer0_3_MEMBER_0_MEMBER_0_MEMBER_0_FILL"/>
</g>

<g transform="matrix( 1, 0, 0, 1, -616.75,-219.3) ">
<use xlink:href="#Symbol_4_copy_0_Layer0_3_MEMBER_0_MEMBER_0_MEMBER_1_FILL"/>
</g>

<g transform="matrix( 1, 0, 0, 1, -616.75,-219.3) ">
<use xlink:href="#Symbol_4_copy_0_Layer0_4_FILL"/>
</g>

<g transform="matrix( 1, 0, 0, 1, -71.6,-13.8) ">
<g transform="matrix( 1, 0, 0, 1, 0,0) ">
<use filter="url(#Filter_1)" xlink:href="#flash0_ai_Objects__Path__0_Layer0_0_FILL"/>
</g>
</g>
</g>

<g transform="matrix( 1, 0, 0, 1, 0,0) ">
<g transform="matrix( 1, 0, 0, 1, 0,0) ">
<use xlink:href="#Symbol_5_0_Layer0_0_FILL"/>
</g>

<g transform="matrix( 1.8427734375, 0, 0, 1.8427734375, 291.6,301.25) ">
<g transform="matrix( 1, 0, 0, 1, 0,0) ">
<use xlink:href="#Symbol_7_0_Layer0_0_FILL"/>

<use xlink:href="#Symbol_7_0_Layer0_0_1_STROKES"/>
</g>
</g>

<g transform="matrix( 1, 0, 0, 1, 291.85,41.2) ">
<g transform="matrix( 0.59771728515625, 0, 0, 0.7862396240234375, -145.1,-338.65) ">
<use xlink:href="#Symbol_10_0_Layer0_0_FILL"/>

<use xlink:href="#Symbol_10_0_Layer0_0_1_STROKES" transform="matrix( 1.6730194091796875, 0, 0, 1.2718658447265625, 242.75,430.7) "/>
</g>

<g transform="matrix( 0.59771728515625, 0, 0, 0.7862396240234375, -145.1,-338.65) ">
<use xlink:href="#Symbol_10_0_Layer0_1_FILL"/>

<use xlink:href="#Symbol_10_0_Layer0_1_1_STROKES" transform="matrix( 1.6730194091796875, 0, 0, 1.2718658447265625, 242.75,430.7) "/>
</g>

<g transform="matrix( 0.59771728515625, 0, 0, 0.7862396240234375, 11.05,0.6) ">
<g transform="matrix( 1, 0, 0, 1, 0,0) ">
<use filter="url(#Filter_2)" xlink:href="#Symbol_9_0_Layer0_0_FILL"/>
</g>
</g>
</g>
</g>
</g>
</svg>
